<?xml version="1.0" encoding="UTF-8"?><svg id="a" xmlns="http://www.w3.org/2000/svg" viewBox="0 0 14.279 17.254"><defs><style>.b{fill:#244b0f;stroke-width:0px;}</style></defs><path class="b" d="m7.87,7.541v1.79h.066c1.167.009,2.185-.355,3.053-1.092s1.965-1.25,3.29-1.54c0,1.772-.904,2.955-2.711,3.547s-2.86,1.467-3.159,2.626c-.412,1.044-.623,2.505-.632,4.383h-.487c-.351-1.369-.518-2.68-.5-3.935-.035-1.009-1.007-1.79-2.915-2.343S.676,8.98,0,6.646c1.527.009,2.764.485,3.711,1.428s1.974,1.362,3.08,1.257h.079v-1.777c-.5-.053-.983-.215-1.448-.487-.597-.333-1.062-.798-1.395-1.395s-.5-1.226-.5-1.889.169-1.296.507-1.902.807-1.07,1.408-1.395,1.22-.487,1.856-.487,1.259.162,1.869.487,1.086.79,1.428,1.395.513,1.239.513,1.902-.169,1.292-.507,1.889-.805,1.062-1.402,1.395c-.439.246-.882.404-1.329.474Zm-2.454-4.856c-.197.351-.296.717-.296,1.099s.097.744.29,1.086.465.61.816.803.711.29,1.079.29c.377,0,.741-.097,1.092-.29s.623-.461.816-.803.29-.704.29-1.086-.101-.748-.303-1.099-.474-.619-.816-.803-.702-.276-1.079-.276c-.36,0-.715.092-1.066.276s-.625.452-.823.803Z"/></svg>